<?xml version="1.0" standalone="no"?>
<!DOCTYPE svg PUBLIC "-//W3C//DTD SVG 20010904//EN"
 "http://www.w3.org/TR/2001/REC-SVG-20010904/DTD/svg10.dtd">
<svg version="1.0" xmlns="http://www.w3.org/2000/svg"
 width="700.000000pt" height="700.000000pt" viewBox="0 0 700.000000 700.000000"
 preserveAspectRatio="xMidYMid meet">
<metadata>
Created by potrace 1.14, written by Peter Selinger 2001-2017
</metadata>
<g transform="translate(0.000000,700.000000) scale(0.100000,-0.100000)"
fill="#000000" stroke="none">
<path d="M1960 5538 c-438 -26 -822 -231 -1084 -578 -157 -208 -263 -482 -284
-735 -4 -44 -7 -546 -7 -1115 0 -1124 -1 -1093 57 -1258 54 -155 133 -280 247
-391 204 -198 449 -295 736 -292 256 3 443 78 601 243 117 121 208 261 354
543 46 88 104 191 129 230 57 86 206 238 284 289 235 154 533 192 800 102 147
-49 244 -111 363 -230 100 -101 158 -187 263 -390 242 -467 410 -657 656 -741
141 -48 404 -63 517 -29 9 3 26 7 38 9 178 34 406 170 526 313 27 31 51 59 54
62 19 16 103 166 128 230 41 100 54 151 70 267 9 62 8 2115 -1 2168 -3 17 -8
50 -12 75 -23 152 -69 293 -142 435 -35 67 -119 205 -132 215 -3 3 -18 21 -32
40 -40 53 -126 140 -199 201 -236 198 -526 314 -835 335 -126 9 -2954 11
-3095 2z m3125 -619 c135 -67 197 -223 145 -363 -70 -185 -309 -248 -458 -120
-175 149 -119 428 101 500 59 20 154 12 212 -17z m-2945 -272 c134 -33 207
-74 300 -167 212 -212 228 -542 37 -775 -104 -127 -283 -214 -444 -215 -63 0
-184 26 -239 51 -167 77 -294 231 -334 407 -13 58 -16 182 -5 234 39 188 157
338 327 418 36 17 94 37 129 44 57 12 187 14 229 3z m2312 -292 c79 -22 151
-85 190 -164 31 -64 30 -169 -2 -237 -51 -106 -148 -168 -265 -168 -260 1
-388 312 -202 495 73 72 182 101 279 74z m1163 0 c81 -21 161 -89 192 -163 48
-115 25 -237 -59 -321 -173 -173 -469 -68 -494 176 -21 199 167 359 361 308z
m-596 -580 c85 -15 178 -94 210 -180 26 -68 23 -164 -8 -227 -105 -218 -413
-221 -520 -7 -90 181 22 391 223 418 28 4 54 6 57 5 3 -2 20 -6 38 -9z"/>
</g>
</svg>
