<?xml version="1.0" standalone="no"?>
<!DOCTYPE svg PUBLIC "-//W3C//DTD SVG 20010904//EN"
 "http://www.w3.org/TR/2001/REC-SVG-20010904/DTD/svg10.dtd">
<svg version="1.0" xmlns="http://www.w3.org/2000/svg"
 width="700.000000pt" height="700.000000pt" viewBox="0 0 700.000000 700.000000"
 preserveAspectRatio="xMidYMid meet">
<metadata>
Created by potrace 1.14, written by Peter Selinger 2001-2017
</metadata>
<g transform="translate(0.000000,700.000000) scale(0.100000,-0.100000)"
fill="#000000" stroke="none">
<path d="M930 6900 c-269 -57 -482 -225 -599 -470 -84 -176 -76 100 -79 -2680
-2 -2611 1 -2913 37 -3038 80 -276 287 -486 576 -583 l70 -24 2525 -3 2525 -3
91 21 c163 37 301 117 421 243 116 123 188 265 224 445 16 80 25 5298 9 5392
-29 172 -105 324 -227 451 -90 94 -183 159 -296 205 -168 68 4 64 -2726 63
-2342 0 -2470 -1 -2551 -19z m2905 -1364 c944 -172 1627 -915 1715 -1867 92
-987 -568 -1916 -1537 -2165 -776 -199 -1592 62 -2101 671 -153 183 -286 415
-361 629 -27 77 -29 88 -14 84 10 -3 186 -74 391 -159 l373 -154 10 -40 c20
-76 82 -179 145 -241 109 -107 248 -164 402 -164 164 0 283 50 402 170 42 41
88 98 103 127 31 59 67 188 67 243 0 23 7 43 18 53 10 9 172 127 361 262 320
228 347 245 387 245 180 0 410 103 536 238 148 160 218 332 218 537 0 375
-234 677 -595 771 -105 27 -286 25 -389 -4 -317 -91 -549 -369 -573 -687 l-6
-80 -215 -315 c-119 -173 -233 -338 -253 -366 l-37 -51 -74 -6 c-78 -7 -165
-33 -228 -68 l-38 -22 -544 223 c-298 123 -548 228 -554 234 -25 24 21 293 82
486 153 483 484 898 925 1159 229 136 531 238 794 270 119 14 482 6 590 -13z
m446 -1010 c180 -39 335 -179 390 -355 28 -90 28 -223 0 -312 -72 -227 -298
-383 -531 -365 -169 12 -309 95 -404 238 -61 91 -79 157 -79 283 0 88 4 122
22 170 60 165 197 291 361 334 90 24 153 25 241 7z m-1229 -1428 c92 -46 167
-122 211 -215 30 -64 32 -74 32 -183 0 -108 -2 -119 -31 -180 -57 -118 -146
-198 -271 -239 -156 -52 -347 -3 -457 119 -38 43 -72 100 -58 100 5 0 69 -26
143 -57 130 -56 137 -58 224 -58 79 0 96 4 142 27 68 36 120 90 152 158 37 80
36 192 -2 272 -42 85 -103 134 -238 190 -63 26 -132 55 -154 65 l-40 16 40 13
c25 9 77 13 136 11 88 -2 103 -6 171 -39z"/>
<path d="M4085 4397 c-318 -81 -408 -486 -153 -688 97 -76 243 -102 362 -65
157 49 267 201 267 370 0 86 -18 149 -62 217 -84 131 -265 204 -414 166z"/>
</g>
</svg>
